{"title":"Scandal Season 5 S05 Complete [720p]~{KiNg}","uid":14742638,"size":7711642647,"categoryP":"video","categoryS":"hd___tv_shows","magnet":"?xt=urn:btih:d1f081a0bc2455305aeb67949216b4b6c78d048d&amp;dn=Scandal+Season+5+S05+Complete+%5B720p%5D%7E%7BKiNg%7D&amp;tr=udp%3A%2F%2Ftracker.leechers-paradise.org%3A6969&amp;tr=udp%3A%2F%2Fzer0day.ch%3A1337&amp;tr=udp%3A%2F%2Fopen.demonii.com%3A1337&amp;tr=udp%3A%2F%2Ftracker.coppersurfer.tk%3A6969&amp;tr=udp%3A%2F%2Fexodus.desync.com%3A6969","seeders":90,"leechers":46,"uploader":"Uplaoderking","files":21,"time":1464694791,"description":"General\r\nFormat : Matroska\r\nFormat version : Version 4 / Version 2\r\nFile size : 350 MiB\r\nDuration : 41mn 47s\r\nOverall bit rate : 1 169 Kbps\r\n\r\nVideo\r\nID : 1\r\nFormat : AVC\r\nFormat/Info : Advanced Video Codec\r\nFormat profile :   \r\nFormat settings, CABAC : Yes\r\nFormat settings, ReFrames : 4 frames\r\nCodec ID : V_MPEG4/ISO/AVC\r\nDuration : 41mn 47s\r\nBit rate : 1 090 Kbps\r\nWidth : 1 280 pixels\r\nHeight : 716 pixels\r\nDisplay aspect ratio : 16:9\r\nFrame rate mode : Constant\r\nFrame rate : 23.976 (24000/1001) fps\r\nColor space : YUV\r\nChroma subsampling : 4:2:0\r\nBit depth : 8 bits\r\nScan type : Progressive\r\nBits/(Pixel*Frame) : 0.050\r\nStream size : 326 MiB (93%)\r\n\r\nAudio\r\nID : 2\r\nFormat : AAC\r\nFormat/Info : Advanced Audio Codec\r\nFormat profile : LC\r\nCodec ID : A_AAC\r\nDuration : 41mn 47s\r\nBit rate : 76.8 Kbps\r\nChannel(s) : 2 channels\r\nChannel positions : Front: L R\r\nSampling rate : 48.0 KHz\r\nFrame rate : 46.875 fps (1024 spf)\r\nCompression mode : Lossy\r\nDelay relative to video : 9ms\r\nStream size : 23.0 MiB (7%)\r\nLanguage : English\r\nDefault : No\r\nForced : No","torrent":{"xt":"urn:btih:d1f081a0bc2455305aeb67949216b4b6c78d048d","amp;dn":"Scandal+Season+5+S05+Complete+%5B720p%5D%7E%7BKiNg%7D","amp;tr":["udp%3A%2F%2Ftracker.leechers-paradise.org%3A6969","udp%3A%2F%2Fzer0day.ch%3A1337","udp%3A%2F%2Fopen.demonii.com%3A1337","udp%3A%2F%2Ftracker.coppersurfer.tk%3A6969","udp%3A%2F%2Fexodus.desync.com%3A6969"],"infoHash":"d1f081a0bc2455305aeb67949216b4b6c78d048d","infoHashBuffer":{"type":"Buffer","data":[209,240,129,160,188,36,85,48,90,235,103,148,146,22,180,182,199,141,4,141]},"announce":[],"urlList":[]}}